<?xml version="1.0" standalone="no"?><!DOCTYPE svg PUBLIC "-//W3C//DTD SVG 1.1//EN" "http://www.w3.org/Graphics/SVG/1.1/DTD/svg11.dtd"><svg t="1727009351885" class="icon" viewBox="0 0 1024 1024" version="1.1" xmlns="http://www.w3.org/2000/svg" p-id="7973" xmlns:xlink="http://www.w3.org/1999/xlink" width="200" height="200"><path d="M387.018 210.626c17.18 0 31.1-13.925 31.1-31.1v-10.365h186.598v10.366c0 17.175 13.92 31.1 31.099 31.1s31.1-13.926 31.1-31.1V96.594c0-17.175-13.92-31.1-31.1-31.1s-31.1 13.926-31.1 31.1v10.366H418.119V96.594c0-17.175-13.92-31.1-31.1-31.1s-31.099 13.926-31.099 31.1v82.933c0 17.174 13.92 31.1 31.1 31.1zM400.417 314.945c-17.18 0-31.1 13.925-31.1 31.1v30.34c0 17.174 13.92 31.099 31.1 31.099s31.099-13.926 31.099-31.1v-30.34c0.001-17.175-13.92-31.099-31.1-31.099zM622.417 314.945c-17.18 0-31.1 13.925-31.1 31.1v30.34c0 17.174 13.92 31.099 31.1 31.099s31.1-13.926 31.1-31.1v-30.34c0-17.175-13.92-31.099-31.1-31.099zM511.104 546.38c43.774 0 74.783-30.183 86.212-48.017 9.182-14.33 5.021-33.21-9.202-42.57-14.214-9.379-33.429-5.385-42.975 8.707-0.132 0.198-13.556 19.68-34.035 19.68-19.904 0-32.295-18.04-33.125-19.29-9.151-14.35-28.174-18.728-42.65-9.718-14.588 9.065-19.073 28.245-10.002 42.832 11.166 17.964 41.79 48.376 85.777 48.376zM463.633 898.665h-197.46c-41.648 0-75.532-34.713-75.532-77.374V246.377c0-42.665 33.884-77.374 75.532-77.374 17.18 0 31.1-13.925 31.1-31.1s-13.92-31.098-31.1-31.098c-75.947 0-137.73 62.614-137.73 139.573v574.914c0 76.96 61.783 139.574 137.73 139.574h197.46c17.18 0 31.1-13.92 31.1-31.1s-13.92-31.1-31.1-31.1zM756.661 106.803c-17.179 0-31.099 13.926-31.099 31.1s13.92 31.1 31.1 31.1c41.648 0 75.532 34.708 75.532 77.373v305.025c0 17.176 13.92 31.1 31.099 31.1s31.1-13.925 31.1-31.1V246.377c0-76.96-61.785-139.574-137.732-139.574z" p-id="7974"></path><path d="M840.98 650.77L613.393 885.125 502.681 771.12c-11.976-12.326-31.656-12.615-43.977-0.648-12.32 11.966-12.614 31.656-0.648 43.976L591.08 951.43c0.109 0.11 0.239 0.183 0.348 0.292 0.112 0.111 0.186 0.245 0.3 0.356 0.771 0.749 1.644 1.312 2.47 1.964 0.704 0.556 1.363 1.184 2.102 1.67 1.031 0.681 2.132 1.188 3.22 1.732 0.73 0.366 1.426 0.817 2.178 1.122 1.25 0.507 2.548 0.823 3.841 1.162 0.643 0.168 1.263 0.43 1.913 0.556 1.962 0.38 3.95 0.581 5.94 0.581s3.977-0.2 5.938-0.581c0.651-0.127 1.27-0.388 1.913-0.556 1.294-0.339 2.591-0.655 3.842-1.162 0.752-0.305 1.448-0.756 2.178-1.122 1.088-0.544 2.188-1.05 3.22-1.731 0.738-0.487 1.397-1.115 2.101-1.671 0.826-0.652 1.699-1.216 2.47-1.964 0.114-0.11 0.189-0.245 0.3-0.356 0.11-0.109 0.24-0.181 0.348-0.292l249.901-257.332c11.966-12.32 11.673-32.01-0.648-43.976-12.317-11.96-31.999-11.682-43.974 0.649z" p-id="7975"></path></svg>