<?xml version="1.0" standalone="no"?><!DOCTYPE svg PUBLIC "-//W3C//DTD SVG 1.1//EN" "http://www.w3.org/Graphics/SVG/1.1/DTD/svg11.dtd"><svg t="1727010812207" class="icon" viewBox="0 0 1077 1024" version="1.1" xmlns="http://www.w3.org/2000/svg" p-id="11875" xmlns:xlink="http://www.w3.org/1999/xlink" width="210.3515625" height="200"><path d="M813.768627 403.367924h-97.282986a35.504739 35.504739 0 0 0 0 71.009479h13.491801A189.595308 189.595308 0 0 1 538.961944 639.119394a189.595308 189.595308 0 0 1-190.305403-164.741991H355.047394a35.504739 35.504739 0 0 0 0-71.009479H260.604787a35.504739 35.504739 0 0 0 0 71.009479h16.33218A259.894692 259.894692 0 0 0 538.961944 710.128872a259.894692 259.894692 0 0 0 262.024977-237.171659h12.781706a35.504739 35.504739 0 1 0 0-71.009478z" fill="" p-id="11876"></path><path d="M1071.533035 79.564701A75.270048 75.270048 0 0 0 994.132703 0.034085H83.791185A75.270048 75.270048 0 0 0 7.100948 79.564701L0 956.531764a75.980142 75.980142 0 0 0 76.690237 67.459005h923.123224a75.980142 75.980142 0 0 0 76.690238-67.459005zM83.791185 71.043563H994.132703a7.811043 7.811043 0 0 1 5.680758 0v148.409811h-923.123224v-142.018958V71.043563a6.390853 6.390853 0 0 1 7.100948 0zM1001.233651 952.271195h-923.123224a7.811043 7.811043 0 0 1-5.680759 0l4.970664-657.547773h923.123224l4.970664 657.547773a7.811043 7.811043 0 0 1-4.260569 0z" fill="" p-id="11877"></path></svg>