<?xml version="1.0" standalone="no"?><!DOCTYPE svg PUBLIC "-//W3C//DTD SVG 1.1//EN" "http://www.w3.org/Graphics/SVG/1.1/DTD/svg11.dtd"><svg t="1727010882741" class="icon" viewBox="0 0 1024 1024" version="1.1" xmlns="http://www.w3.org/2000/svg" p-id="13867" xmlns:xlink="http://www.w3.org/1999/xlink" width="200" height="200"><path d="M940.218182 279.272727c0-9.309091-9.309091-27.927273-18.618182-37.236363L539.927273 55.854545c-9.309091-9.309091-18.618182-9.309091-27.927273 0L93.090909 242.036364c-9.309091 0-9.309091 9.309091-18.618182 18.618181s-9.309091 18.618182-9.309091 27.927273v446.836364c0 9.309091 9.309091 27.927273 18.618182 27.927273l400.290909 251.345454c9.309091 0 9.309091 9.309091 18.618182 9.309091s9.309091 0 18.618182-9.309091l400.290909-251.345454c9.309091-9.309091 18.618182-18.618182 18.618182-37.236364V288.581818 279.272727zM521.309091 130.327273L819.2 279.272727 502.690909 456.145455 186.181818 279.272727l335.127273-148.945454zM139.636364 344.436364l102.4 55.854545v176.872727c0 18.618182 18.618182 37.236364 37.236363 37.236364s37.236364-18.618182 37.236364-37.236364V437.527273l148.945454 83.781818v390.981818L139.636364 707.490909V344.436364z m400.290909 567.854545V521.309091l325.818182-176.872727v363.054545L539.927273 912.290909z" fill="#494E61" p-id="13868"></path></svg>