<?xml version="1.0" standalone="no"?><!DOCTYPE svg PUBLIC "-//W3C//DTD SVG 1.1//EN" "http://www.w3.org/Graphics/SVG/1.1/DTD/svg11.dtd"><svg t="1727009440205" class="icon" viewBox="0 0 1024 1024" version="1.1" xmlns="http://www.w3.org/2000/svg" p-id="9014" xmlns:xlink="http://www.w3.org/1999/xlink" width="200" height="200"><path d="M369.709851 888.225751h456.113035c7.896517 0 14.825075-8.395781 14.825074-14.809791v-200.464557c0-16.786468 11.360796-28.631244 28.631244-28.631244 13.806169 0 29.089751 11.844776 28.631244 28.631244v200.464557c-3.973731 40.970189-37.037214 72.566448-76.061294 72.566448H199.501692c-38.514627 0-72.087562-34.06201-72.087563-72.566448v-200.464557c0-16.292299 12.379701-28.631244 29.140697-28.631244 13.806169 0 29.140697 11.844776 29.140696 28.631244v200.464557c0 7.896517 7.896517 14.809791 14.315622 14.809791h108.564378v-116.002388c0-16.86798 13.704279-30.567164 30.567165-30.567164s30.567164 13.699184 30.567164 30.567164v116.002388z m603.650547-422.779542c-6.011542 90.65202-81.512438 162.4441-173.672438 162.444099-59.045572 0-111.213532-29.415801-142.697711-74.36991-31.280398 46.319443-84.263483 76.8-144.32796 76.8-59.50408 0-112.079602-29.940537-143.461891-75.572219-31.433234 45.631682-84.008756 75.572219-143.512836 75.572219-93.586468 0-170.004378-73.987821-173.927164-166.596139a31.214169 31.214169 0 0 1 0.713234-10.403025l76.41791-310.766169a30.602826 30.602826 0 0 1 29.701095-23.271801h708.139303c14.060896 0 26.338706 9.608279 29.701095 23.271801l76.41791 310.766169c0.96796 4.019582 1.120796 8.13596 0.509453 12.124975z m-347.803383-5.741532c-0.050945-0.998527 0.356617-29.991483 29.904876-29.996577 30.567164-0.010189 31.382289 29.48203 31.382288 29.482029 2.80199 59.845413 52.269851 107.565851 112.843781 107.565851 59.249353 0 107.953035-45.774328 112.53811-103.882507l-69.438408-282.455881H182.587861L112.996617 463.413493c3.66806 58.999721 52.779303 105.772577 112.690945 105.772577 61.185274 0 111.060697-48.744438 112.843781-109.481393 0 1.655721 1.528358-29.655244 30.669055-29.655244s30.567164 29.655244 30.567164 29.655244c1.83403 60.736955 51.709453 109.481393 112.894727 109.481393s111.060697-48.744438 112.894726-109.481393z" p-id="9015"></path></svg>