<?xml version="1.0" standalone="no"?><!DOCTYPE svg PUBLIC "-//W3C//DTD SVG 1.1//EN" "http://www.w3.org/Graphics/SVG/1.1/DTD/svg11.dtd"><svg t="1727009023448" class="icon" viewBox="0 0 1024 1024" version="1.1" xmlns="http://www.w3.org/2000/svg" p-id="6960" xmlns:xlink="http://www.w3.org/1999/xlink" width="200" height="200"><path d="M516 512c121.504 0 220-98.496 220-220s-98.496-220-220-220-220 98.496-220 220 98.496 220 220 220z m0-72c-81.74 0-148-66.264-148-148s66.26-148 148-148 148 66.264 148 148-66.26 148-148 148zM460 644c0 4.42-3.6 7.988-8.016 8.12-145.36 4.284-263.816 124.676-267.88 275.86C183.992 932.396 180.424 936 176 936H120a7.888 7.888 0 0 1-7.912-8.024c4.108-189.38 153.216-343.576 339.884-347.884A7.88 7.88 0 0 1 460 588v56zM576 592a8 8 0 0 1 8-8h320a8 8 0 0 1 8 8v48a8 8 0 0 1-8 8h-320a8 8 0 0 1-8-8v-48zM576 880a8 8 0 0 1 8-8h320a8 8 0 0 1 8 8v48a8 8 0 0 1-8 8h-320a8 8 0 0 1-8-8v-48zM584 728a8 8 0 0 0-8 8v48a8 8 0 0 0 8 8h320a8 8 0 0 0 8-8v-48a8 8 0 0 0-8-8h-320z" p-id="6961"></path></svg>